<svg xmlns="http://www.w3.org/2000/svg" width="678.4266357421875" height="216.63021850585938" viewBox="-182.64244079589844 -14.914079666137695 678.4266357421875 216.63021850585938"><title>Neo4j Graph Visualization</title><desc>Created using Neo4j (http://www.neo4j.com/)</desc><g class="layer relationships"><g class="relationship" transform="translate(139.54496670479574 93.35797098022014) rotate(386.54412333633206)"><path class="outline" fill="#A5ABB6" stroke="none" d="M 25 0.5 L 72.01460347061281 0.5 L 72.01460347061281 -0.5 L 25 -0.5 Z M 98.56538472061281 0.5 L 145.57998819122562 0.5 L 145.57998819122562 3.5 L 152.57998819122562 0 L 145.57998819122562 -3.5 L 145.57998819122562 -0.5 L 98.56538472061281 -0.5 Z"/><text text-anchor="middle" pointer-events="none" font-size="8px" fill="#000000" x="85.28999409561281" y="3" font-family="sans-serif">LIKES</text></g><g class="relationship" transform="translate(139.54496670479574 93.35797098022014) rotate(530.7311132215023)"><path class="outline" fill="#A5ABB6" stroke="none" d="M 25 0.5 L 131.75766246649297 0.5 L 131.75766246649297 -0.5 L 25 -0.5 Z M 158.30844371649297 0.5 L 265.06610618298595 0.5 L 265.06610618298595 3.5 L 272.06610618298595 0 L 265.06610618298595 -3.5 L 265.06610618298595 -0.5 L 158.30844371649297 -0.5 Z"/><text text-anchor="middle" pointer-events="none" font-size="8px" fill="#000000" x="145.03305309149297" y="3" transform="rotate(180 145.03305309149297 0)" font-family="sans-serif">LIKES</text></g><g class="relationship" transform="translate(139.54496670479574 93.35797098022014) rotate(324.09592015723314)"><path class="outline" fill="#A5ABB6" stroke="none" d="M 25 0.5 L 50.81327783935653 0.5 L 50.81327783935653 -0.5 L 25 -0.5 Z M 77.36405908935653 0.5 L 103.17733692871306 0.5 L 103.17733692871306 3.5 L 110.17733692871306 0 L 103.17733692871306 -3.5 L 103.17733692871306 -0.5 L 77.36405908935653 -0.5 Z"/><text text-anchor="middle" pointer-events="none" font-size="8px" fill="#000000" x="64.08866846435653" y="3" font-family="sans-serif">LIKES</text></g><g class="relationship" transform="translate(466.78417883664935 87.97393464864456) rotate(198.74371140022686)"><path class="outline" fill="#A5ABB6" stroke="none" d="M 25 0.5 L 98.19479935743784 0.5 L 98.19479935743784 -0.5 L 25 -0.5 Z M 124.74558060743784 0.5 L 197.9403799648757 0.5 L 197.9403799648757 3.5 L 204.9403799648757 0 L 197.9403799648757 -3.5 L 197.9403799648757 -0.5 L 124.74558060743784 -0.5 Z"/><text text-anchor="middle" pointer-events="none" font-size="8px" fill="#000000" x="111.47018998243784" y="3" transform="rotate(180 111.47018998243784 0)" font-family="sans-serif">LIKES</text></g><g class="relationship" transform="translate(466.78417883664935 87.97393464864456) rotate(513.2845307817527)"><path class="outline" fill="#A5ABB6" stroke="none" d="M 25 0.5 L 77.47472790664646 0.5 L 77.47472790664646 -0.5 L 25 -0.5 Z M 104.02550915664646 0.5 L 156.50023706329293 0.5 L 156.50023706329293 3.5 L 163.50023706329293 0 L 156.50023706329293 -3.5 L 156.50023706329293 -0.5 L 104.02550915664646 -0.5 Z"/><text text-anchor="middle" pointer-events="none" font-size="8px" fill="#000000" x="90.75011853164646" y="3" transform="rotate(180 90.75011853164646 0)" font-family="sans-serif">LIKES</text></g><g class="relationship" transform="translate(-126.91396561767672 17.281959818796622) rotate(462.1713742966355)"><path class="outline" fill="#A5ABB6" stroke="none" d="M 25 0.5 L 46.61137157790013 0.5 L 46.61137157790013 -0.5 L 25 -0.5 Z M 73.16215282790013 0.5 L 94.77352440580026 0.5 L 94.77352440580026 3.5 L 101.77352440580026 0 L 94.77352440580026 -3.5 L 94.77352440580026 -0.5 L 73.16215282790013 -0.5 Z"/><text text-anchor="middle" pointer-events="none" font-size="8px" fill="#000000" x="59.88676220290013" y="3" transform="rotate(180 59.88676220290013 0)" font-family="sans-serif">LIKES</text></g><g class="relationship" transform="translate(139.54496670479574 93.35797098022014) rotate(359.057402913802)"><path class="outline" fill="#A5ABB6" stroke="none" d="M 25 0.5 L 141.09487532971875 0.5 L 141.09487532971875 -0.5 L 25 -0.5 Z M 179.18862532971875 0.5 L 295.2835006594375 0.5 L 295.2835006594375 3.5 L 302.2835006594375 0 L 295.2835006594375 -3.5 L 295.2835006594375 -0.5 L 179.18862532971875 -0.5 Z"/><text text-anchor="middle" pointer-events="none" font-size="8px" fill="#000000" x="160.14175032971875" y="3" font-family="sans-serif">SIMILAR</text></g><g class="relationship" transform="translate(139.54496670479574 93.35797098022014) rotate(195.9344390617896)"><path class="outline" fill="#A5ABB6" stroke="none" d="M 25 0.5 L 116.00629357497795 0.5 L 116.00629357497795 -0.5 L 25 -0.5 Z M 154.10004357497795 0.5 L 245.1063371499559 0.5 L 245.1063371499559 3.5 L 252.1063371499559 0 L 245.1063371499559 -3.5 L 245.1063371499559 -0.5 L 154.10004357497795 -0.5 Z"/><text text-anchor="middle" pointer-events="none" font-size="8px" fill="#000000" x="135.05316857497795" y="3" transform="rotate(180 135.05316857497795 0)" font-family="sans-serif">SIMILAR</text></g></g><g class="layer nodes"><g class="node" transform="translate(139.54496670479574,93.35797098022014)"><circle class="outline" cx="0" cy="0" r="25" fill="#ECB5C9" stroke="#da7298" stroke-width="2px"/><text text-anchor="middle" pointer-events="none" font-family="sans-serif" dy="1.5625" font-size="25" fill="#604A0E"/><text text-anchor="middle" pointer-events="none" y="5" font-size="10px" fill="#604A0E" font-family="sans-serif"> Alice</text></g><g class="node" transform="translate(298.4063336585467,172.7161356236991)"><circle class="outline" cx="0" cy="0" r="25" fill="#4C8EDA" stroke="#2870c2" stroke-width="2px"/><text text-anchor="middle" pointer-events="none" font-family="sans-serif" dy="1.5625" font-size="25" fill="#FFFFFF"/><text text-anchor="middle" pointer-events="none" y="5" font-size="10px" fill="#FFFFFF" font-family="sans-serif"> p2</text></g><g class="node" transform="translate(-153.6424442700623,141.2057869030059)"><circle class="outline" cx="0" cy="0" r="25" fill="#4C8EDA" stroke="#2870c2" stroke-width="2px"/><text text-anchor="middle" pointer-events="none" font-family="sans-serif" dy="1.5625" font-size="25" fill="#FFFFFF"/><text text-anchor="middle" pointer-events="none" y="5" font-size="10px" fill="#FFFFFF" font-family="sans-serif"> p3</text></g><g class="node" transform="translate(249.0385940389505,14.085920468403216)"><circle class="outline" cx="0" cy="0" r="25" fill="#4C8EDA" stroke="#2870c2" stroke-width="2px"/><text text-anchor="middle" pointer-events="none" font-family="sans-serif" dy="1.5625" font-size="25" fill="#FFFFFF"/><text text-anchor="middle" pointer-events="none" y="5" font-size="10px" fill="#FFFFFF" font-family="sans-serif"> p1</text></g><g class="node" transform="translate(466.78417883664935,87.97393464864456)"><circle class="outline" cx="0" cy="0" r="25" fill="#ECB5C9" stroke="#da7298" stroke-width="2px"/><text text-anchor="middle" pointer-events="none" font-family="sans-serif" dy="1.5625" font-size="25" fill="#604A0E"/><text text-anchor="middle" pointer-events="none" y="5" font-size="10px" fill="#604A0E" font-family="sans-serif"> Bob</text></g><g class="node" transform="translate(-126.91396561767672,17.281959818796622)"><circle class="outline" cx="0" cy="0" r="25" fill="#ECB5C9" stroke="#da7298" stroke-width="2px"/><text text-anchor="middle" pointer-events="none" font-family="sans-serif" dy="1.5625" font-size="25" fill="#604A0E"/><text text-anchor="middle" pointer-events="none" y="5" font-size="10px" fill="#604A0E" font-family="sans-serif"> Charlie</text></g></g></svg>